<svg width="84" height="19" viewBox="0 0 84 19" fill="none" xmlns="http://www.w3.org/2000/svg">
<path d="M12.672 6.48C12.368 5.92 11.928 5.496 11.352 5.208C10.792 4.904 10.128 4.752 9.36 4.752C8.032 4.752 6.968 5.192 6.168 6.072C5.368 6.936 4.968 8.096 4.968 9.552C4.968 11.104 5.384 12.32 6.216 13.2C7.064 14.064 8.224 14.496 9.696 14.496C10.704 14.496 11.552 14.24 12.24 13.728C12.944 13.216 13.456 12.48 13.776 11.52H8.568V8.496H17.496V12.312C17.192 13.336 16.672 14.288 15.936 15.168C15.216 16.048 14.296 16.76 13.176 17.304C12.056 17.848 10.792 18.12 9.384 18.12C7.72 18.12 6.232 17.76 4.92 17.04C3.624 16.304 2.608 15.288 1.872 13.992C1.152 12.696 0.792 11.216 0.792 9.552C0.792 7.888 1.152 6.408 1.872 5.112C2.608 3.8 3.624 2.784 4.92 2.064C6.216 1.328 7.696 0.959999 9.36 0.959999C11.376 0.959999 13.072 1.448 14.448 2.424C15.84 3.4 16.76 4.752 17.208 6.48H12.672ZM18.9533 11.28C18.9533 9.904 19.2093 8.696 19.7213 7.656C20.2493 6.616 20.9613 5.816 21.8573 5.256C22.7533 4.696 23.7533 4.416 24.8573 4.416C25.8013 4.416 26.6253 4.608 27.3293 4.992C28.0493 5.376 28.6013 5.88 28.9853 6.504V4.608H33.0893V18H28.9853V16.104C28.5853 16.728 28.0253 17.232 27.3053 17.616C26.6013 18 25.7773 18.192 24.8333 18.192C23.7453 18.192 22.7533 17.912 21.8573 17.352C20.9613 16.776 20.2493 15.968 19.7213 14.928C19.2093 13.872 18.9533 12.656 18.9533 11.28ZM28.9853 11.304C28.9853 10.28 28.6973 9.472 28.1213 8.88C27.5613 8.288 26.8733 7.992 26.0573 7.992C25.2413 7.992 24.5453 8.288 23.9693 8.88C23.4093 9.456 23.1293 10.256 23.1293 11.28C23.1293 12.304 23.4093 13.12 23.9693 13.728C24.5453 14.32 25.2413 14.616 26.0573 14.616C26.8733 14.616 27.5613 14.32 28.1213 13.728C28.6973 13.136 28.9853 12.328 28.9853 11.304ZM53.1463 4.464C54.8103 4.464 56.1303 4.968 57.1063 5.976C58.0983 6.984 58.5943 8.384 58.5943 10.176V18H54.5143V10.728C54.5143 9.864 54.2823 9.2 53.8183 8.736C53.3703 8.256 52.7463 8.016 51.9463 8.016C51.1463 8.016 50.5143 8.256 50.0503 8.736C49.6023 9.2 49.3783 9.864 49.3783 10.728V18H45.2983V10.728C45.2983 9.864 45.0663 9.2 44.6023 8.736C44.1543 8.256 43.5303 8.016 42.7303 8.016C41.9303 8.016 41.2983 8.256 40.8343 8.736C40.3863 9.2 40.1623 9.864 40.1623 10.728V18H36.0583V4.608H40.1623V6.288C40.5783 5.728 41.1223 5.288 41.7943 4.968C42.4663 4.632 43.2263 4.464 44.0743 4.464C45.0823 4.464 45.9783 4.68 46.7623 5.112C47.5623 5.544 48.1863 6.16 48.6343 6.96C49.0983 6.224 49.7303 5.624 50.5303 5.16C51.3303 4.696 52.2023 4.464 53.1463 4.464ZM65.5686 1.152V18H61.4646V1.152H65.5686ZM78.8627 18L75.4307 12.84L72.4067 18H67.7507L73.1507 9.432L67.6307 1.152H72.4067L75.7907 6.24L78.7667 1.152H83.4227L78.0707 9.648L83.6387 18H78.8627Z" fill="#5A2B80"/>
</svg>
